# xmcd CD database file
#
# Track frame offsets:
#	150
#	13717
#	22862
#	33885
#	44225
#	53902
#	66977
#	77142
#	87947
#	99085
#	111162
#	121967
#
# Disc length: 1756 seconds
#
# Revision: 1
# Processed by: cddbd v1.4PL0 Copyright (c) Steve Scherf et al.
# Submitted via: CDex 1.40Release
#
DISCID=9306da0c
DTITLE=Perez Prado - I Grandi Successi Originali cd2
DYEAR=2000
DGENRE=Latin
TTITLE0=Marta
TTITLE1=Frenesi
TTITLE2=Come back to sorrento (torna a sorrento)
TTITLE3=Quizas, Quizas, quizas
TTITLE4=Mambo n. 5
TTITLE5=Cu cu rru cu cu paloma
TTITLE6=Caballo negro (Mambo batirl)
TTITLE7=Guaglione
TTITLE8=Anna (El negro zumbon)
TTITLE9=Thè peanut vender (Il venditore di noccioline)
TTITLE10=ritmo de chunga tìsksss
TTITLE11=Why wait
EXTD=YEAR: 2000 ID3G: 86
EXTT0=
EXTT1=
EXTT2=
EXTT3=
EXTT4=
EXTT5=
EXTT6=
EXTT7=
EXTT8=
EXTT9=
EXTT10=
EXTT11=
PLAYORDER=
